<?xml version="1.0" encoding="utf-8"?>
<!-- Generated by IcoMoon.io -->
<!DOCTYPE svg PUBLIC "-//W3C//DTD SVG 1.1//EN" "http://www.w3.org/Graphics/SVG/1.1/DTD/svg11.dtd">
<svg version="1.1" xmlns="http://www.w3.org/2000/svg" xmlns:xlink="http://www.w3.org/1999/xlink" width="50" height="50" viewBox="0 0 50 50">
<path d="M38.2 22.1v5.3h-2.2v-5.3h-5.2v-2.2h5.2v-5.2h2.2v5.2h4c0.3 0.7 0.5 1.4 0.8 2.2h-4.8z" fill="#444444"></path>
<path d="M31.3 14c0 0-8.2 0-11 0-4.9 0-9.6 3.7-9.6 8.1s3.4 8 8.4 8c0.3 0 0.7 0 1 0-0.3 0.6-0.6 1.3-0.6 2.1 0 1.2 0.7 2.2 1.5 3-0.6 0-1.2 0-1.9 0-6.1 0-10.8 3.9-10.8 7.9s5.1 6.5 11.3 6.5c7 0 10.8-3.9 10.8-7.9 0-3.2-0.9-5.1-3.8-7.1-1-0.7-2.9-2.4-2.9-3.4 0-1.2 0.3-1.8 2.1-3.1 1.8-1.4 3.1-3.4 3.1-5.7 0-2.8-1.2-5.5-3.5-6.3h3.5l2.4-2.1zM27.5 40.9c0.1 0.4 0.1 0.7 0.1 1.1 0 3.2-2.1 5.7-8 5.7-4.2 0-7.3-2.7-7.3-5.9 0-3.1 3.8-5.8 8-5.7 1 0 1.9 0.2 2.7 0.4 2.4 1.7 4 2.6 4.5 4.4v0zM20.8 28.9c-2.8-0.1-5.5-3.2-6-6.9s1.4-6.6 4.2-6.5c2.8 0.1 5.5 3.1 6 6.8 0.5 3.8-1.4 6.7-4.2 6.6z" fill="#444444"></path>
</svg>
