<?xml version="1.0" encoding="utf-8"?>
<!-- Generated by IcoMoon.io -->
<!DOCTYPE svg PUBLIC "-//W3C//DTD SVG 1.1//EN" "http://www.w3.org/Graphics/SVG/1.1/DTD/svg11.dtd">
<svg version="1.1" xmlns="http://www.w3.org/2000/svg" xmlns:xlink="http://www.w3.org/1999/xlink" width="38" height="32" viewBox="0 0 38 32">
<path d="M26.096 21.426c0.191-0.891 0.293-1.817 0.293-2.764 0-0.953-0.102-1.884-0.295-2.778l-2.979-0.201c-0.22-0.73-0.521-1.428-0.891-2.077l2.074-2.045c-1.014-1.567-2.354-2.906-3.921-3.918l-2.249 1.964c-0.66-0.354-1.363-0.636-2.099-0.84l0.021-2.914c-0.891-0.191-1.817-0.293-2.764-0.293-0.953 0-1.884 0.102-2.778 0.295l-0.201 2.979c-0.73 0.22-1.428 0.521-2.077 0.891l-2.045-2.077c-1.567 1.014-2.906 2.354-3.918 3.921l1.964 2.249c-0.354 0.66-0.636 1.363-0.84 2.099l-2.914-0.021c-0.191 0.891-0.293 1.817-0.293 2.764 0 0.953 0.102 1.884 0.295 2.778l2.979 0.201c0.22 0.73 0.521 1.428 0.891 2.077l-2.074 2.048c1.014 1.567 2.354 2.906 3.921 3.918l2.246-1.964c0.66 0.354 1.363 0.639 2.099 0.84l-0.021 2.912c0.891 0.191 1.817 0.293 2.764 0.293 0.953 0 1.884-0.102 2.778-0.295l0.201-2.979c0.73-0.22 1.428-0.521 2.080-0.891l2.045 2.074c1.567-1.014 2.906-2.354 3.918-3.921l-1.964-2.246c0.354-0.66 0.636-1.363 0.84-2.099l2.914 0.021zM13.287 22.666c-2.211 0-4.007-1.793-4.007-4.004s1.793-4.007 4.007-4.007c2.211 0 4.007 1.793 4.007 4.007 0 2.211-1.795 4.004-4.007 4.004z" fill="rgb(212, 58, 39)"></path>
<path d="M19.752 19.258c0-3.569-2.896-6.465-6.465-6.465s-6.465 2.896-6.465 6.465c0 3.569 2.896 6.465 6.465 6.465s6.465-2.896 6.465-6.465zM9.283 18.662c0-2.211 1.793-4.007 4.007-4.007 2.211 0 4.007 1.793 4.007 4.007 0 2.211-1.793 4.004-4.007 4.004s-4.007-1.793-4.007-4.004z" fill="rgb(150, 40, 32)"></path>
<path d="M13.287 12.197c-3.569 0-6.465 2.896-6.465 6.465s2.896 6.465 6.465 6.465c3.569 0 6.465-2.896 6.465-6.465s-2.896-6.465-6.465-6.465zM13.287 22.508c-2.123 0-3.846-1.723-3.846-3.846s1.723-3.846 3.846-3.846c2.123 0 3.846 1.723 3.846 3.846s-1.723 3.846-3.846 3.846z" fill="rgb(214, 87, 39)"></path>
<path d="M13.416 13.051c2.375 0 4.479 1.167 5.767 2.957-1.014-2.246-3.271-3.811-5.896-3.811-3.011 0-5.542 2.061-6.261 4.847 1.154-2.364 3.583-3.993 6.39-3.993z" fill="rgb(226, 103, 64)"></path>
<path d="M13.37 10.23c3.642 0 6.865 1.787 8.843 4.533-1.554-3.443-5.018-5.842-9.041-5.842-4.616 0-8.496 3.159-9.599 7.431 1.771-3.623 5.493-6.121 9.798-6.121z" fill="rgb(214, 87, 39)"></path>
<path d="M26.877 4.79c0.102-0.429 0.129-0.875 0.072-1.312l-1.114-0.18c-0.038-0.15-0.089-0.295-0.153-0.44l0.754-0.845c-0.113-0.185-0.244-0.362-0.395-0.531-0.15-0.166-0.311-0.317-0.483-0.451l-0.915 0.66c-0.134-0.081-0.274-0.148-0.419-0.201l-0.064-1.13c-0.429-0.102-0.875-0.129-1.312-0.072l-0.18 1.114c-0.15 0.038-0.295 0.089-0.44 0.153l-0.845-0.754c-0.185 0.113-0.362 0.244-0.531 0.395-0.166 0.15-0.317 0.311-0.451 0.48l0.66 0.915c-0.081 0.134-0.148 0.274-0.201 0.419l-1.13 0.064c-0.102 0.429-0.129 0.875-0.072 1.312l1.114 0.18c0.038 0.15 0.089 0.295 0.153 0.44l-0.754 0.845c0.113 0.185 0.247 0.362 0.395 0.531 0.15 0.166 0.311 0.317 0.48 0.451l0.915-0.66c0.134 0.080 0.274 0.148 0.419 0.201l0.064 1.13c0.429 0.102 0.875 0.126 1.312 0.072l0.18-1.114c0.15-0.038 0.295-0.089 0.44-0.153l0.845 0.754c0.185-0.113 0.362-0.244 0.531-0.394 0.166-0.15 0.317-0.311 0.451-0.48l-0.66-0.915c0.081-0.134 0.148-0.274 0.201-0.419l1.133-0.064zM24.301 5.045c-0.615 0.55-1.559 0.496-2.107-0.115-0.55-0.615-0.496-1.559 0.115-2.107 0.615-0.55 1.559-0.496 2.107 0.118 0.55 0.609 0.499 1.554-0.115 2.104z" fill="rgb(150, 40, 32)"></path>
<path d="M34.423 14.315l2.018 0.507c0.424-0.711 0.719-1.497 0.87-2.311l-1.854-0.929c0.019-0.303 0.011-0.609-0.027-0.915l1.787-1.068c-0.099-0.395-0.236-0.786-0.411-1.173-0.174-0.384-0.378-0.743-0.609-1.076l-1.967 0.655c-0.204-0.231-0.427-0.44-0.668-0.625l0.507-2.018c-0.711-0.424-1.495-0.719-2.311-0.87l-0.929 1.854c-0.303-0.019-0.609-0.011-0.915 0.027l-1.068-1.787c-0.395 0.099-0.786 0.236-1.173 0.411-0.384 0.174-0.743 0.378-1.076 0.609l0.655 1.967c-0.231 0.204-0.44 0.427-0.625 0.668l-2.018-0.507c-0.424 0.711-0.719 1.495-0.869 2.311l1.854 0.929c-0.019 0.303-0.011 0.609 0.027 0.915l-1.785 1.068c0.099 0.395 0.236 0.789 0.411 1.173s0.378 0.743 0.609 1.076l1.967-0.655c0.204 0.231 0.427 0.44 0.668 0.625l-0.507 2.018c0.711 0.424 1.495 0.719 2.311 0.869l0.929-1.854c0.303 0.019 0.609 0.011 0.915-0.030l1.068 1.785c0.395-0.099 0.786-0.236 1.173-0.411 0.384-0.174 0.743-0.378 1.076-0.609l-0.655-1.97c0.228-0.199 0.437-0.421 0.623-0.66zM31.683 13.832c-1.409 0.639-3.070 0.016-3.709-1.393s-0.016-3.070 1.393-3.709c1.409-0.639 3.070-0.016 3.709 1.393 0.639 1.406 0.016 3.067-1.393 3.709z" fill="rgb(11, 136, 202)"></path>
<path d="M30.355 7.976c-1.573 0-2.847 1.275-2.847 2.847 0 0.537 0.148 1.039 0.405 1.468-0.534-1.374 0.094-2.944 1.455-3.561 1.409-0.639 3.070-0.016 3.709 1.393 0.032 0.070 0.059 0.14 0.086 0.209-0.236-1.339-1.404-2.356-2.807-2.356z" fill="rgb(29, 163, 221)"></path>
<path d="M23.364 1.841c0.929 0 1.752 0.456 2.257 1.157-0.397-0.878-1.28-1.489-2.305-1.489-1.178 0-2.168 0.805-2.448 1.895 0.448-0.923 1.398-1.562 2.496-1.562z" fill="rgb(164, 44, 41)"></path>
</svg>
