<?xml version="1.0" encoding="utf-8"?>
<!-- Generated by IcoMoon.io -->
<!DOCTYPE svg PUBLIC "-//W3C//DTD SVG 1.1//EN" "http://www.w3.org/Graphics/SVG/1.1/DTD/svg11.dtd">
<svg version="1.1" xmlns="http://www.w3.org/2000/svg" xmlns:xlink="http://www.w3.org/1999/xlink" width="50" height="50" viewBox="0 0 50 50">
<path d="M35.951 34.51c-0.176 0.945-0.91 1.728-1.808 1.928-0.113 0.026-0.228 0.042-0.342 0.063h-17.602c-0.047-0.008-0.094-0.017-0.141-0.023-0.968-0.13-1.781-0.902-1.997-1.899-0.025-0.116-0.041-0.234-0.061-0.351v-18.453c0.007-0.043 0.016-0.086 0.021-0.129 0.139-1.032 0.86-1.853 1.835-2.085 0.105-0.025 0.212-0.040 0.319-0.060h17.651c0.041 0.008 0.081 0.017 0.123 0.023 0.999 0.143 1.812 0.943 2.004 1.974 0.019 0.1 0.032 0.202 0.047 0.302v18.403c-0.016 0.102-0.030 0.206-0.049 0.308zM16.38 33.099c0 0.49 0.406 0.911 0.874 0.911 5.163 0 10.325 0 15.488 0 0.473 0 0.876-0.42 0.876-0.914 0-3.4 0-6.799 0-10.199v-0.071h-2.1c0.297 0.991 0.388 1.999 0.271 3.026s-0.433 1.984-0.949 2.867c-0.516 0.884-1.185 1.616-2.004 2.199-2.123 1.512-4.919 1.645-7.172 0.323-1.139-0.668-2.033-1.599-2.657-2.798-0.93-1.79-1.079-3.669-0.533-5.618-0.697 0.001-1.391 0.001-2.094 0.001v0.062c0 3.404-0 6.807 0 10.211zM24.898 29.658c2.491 0.056 4.506-2.025 4.558-4.555 0.054-2.61-1.96-4.765-4.456-4.764-2.44-0.002-4.424 2.051-4.458 4.59-0.035 2.608 1.962 4.675 4.355 4.729zM33.618 18.482c0-0.726 0-1.452 0-2.179 0-0.521-0.394-0.935-0.892-0.936-0.693-0-1.385-0.001-2.078 0-0.496 0.001-0.892 0.416-0.892 0.937-0 0.72-0.002 1.44 0.002 2.16 0.001 0.107 0.020 0.219 0.053 0.321 0.124 0.383 0.46 0.618 0.871 0.62 0.334 0.001 0.668-0 1.003-0 0.362-0.004 0.725 0.003 1.087-0.006 0.466-0.012 0.845-0.43 0.845-0.917z" fill="#444444"></path>
</svg>
