<?xml version="1.0" encoding="utf-8"?>
<!-- Generated by IcoMoon.io -->
<!DOCTYPE svg PUBLIC "-//W3C//DTD SVG 1.1//EN" "http://www.w3.org/Graphics/SVG/1.1/DTD/svg11.dtd">
<svg version="1.1" xmlns="http://www.w3.org/2000/svg" xmlns:xlink="http://www.w3.org/1999/xlink" width="50" height="50" viewBox="0 0 50 50">
<path d="M14 20.118v14.54h4.71v-14.54h-4.71zM16.665 13c-1.611 0-2.665 1.086-2.665 2.512 0 1.396 1.022 2.513 2.604 2.513h0.030c1.642 0 2.665-1.117 2.665-2.513-0.031-1.426-1.023-2.512-2.634-2.512zM30.577 20.118c-2.501 0-3.62 1.411-4.246 2.401v-2.059h-4.711c0.062 1.364 0 14.54 0 14.54h4.711v-8.12c0-0.435 0.031-0.868 0.155-1.179 0.34-0.868 1.115-1.767 2.417-1.767 1.705 0 2.387 1.333 2.387 3.287v7.779h4.71l0-8.337c0-4.466-2.324-6.545-5.423-6.545z" fill="#444444"></path>
</svg>
