<?xml version="1.0" encoding="utf-8"?>
<!-- Generated by IcoMoon.io -->
<!DOCTYPE svg PUBLIC "-//W3C//DTD SVG 1.1//EN" "http://www.w3.org/Graphics/SVG/1.1/DTD/svg11.dtd">
<svg version="1.1" xmlns="http://www.w3.org/2000/svg" xmlns:xlink="http://www.w3.org/1999/xlink" width="40" height="32" viewBox="0 0 40 32">
<path d="M31.007 7.551h-6.186l-1.612 2.16h8.060l1.612-2.16z" fill="#444444"></path>
<path d="M37.177 1.35h-7.663l-3.946 5.257h8.052l3.938-5.257h-0.381zM29.84 4.447l0.723-0.969h2.684l-0.723 0.969h-2.684z" fill="#444444"></path>
<path d="M26.148 1.35l-1.326 1.771-1.35-1.771h-2.684l-6.289 8.361h2.684l4.939-6.591 1.35 1.795-3.613 4.796h2.684l6.289-8.361z" fill="#444444"></path>
<path d="M21.209 10.354h-7.218l-6.289 8.361h8.044l6.289-8.361h-0.826zM17.747 12.514l-0.723 0.969h-2.684l0.723-0.969h2.684zM11.998 16.588l0.723-0.969h2.684l-0.723 0.969h-2.684z" fill="#444444"></path>
<path d="M30.023 10.354h-7.337l-6.289 8.361h8.044l6.289-8.361h-0.707zM23.408 16.588h-2.684l3.065-4.073h2.684l-3.065 4.073z" fill="#444444"></path>
<path d="M39.472 10.354h-8.036l-6.289 8.361h2.684l1.858-2.477 1.858 2.477h2.684l-2.334-3.105h3.645l3.931-5.257zM35.176 12.514l-0.723 0.969h-2.684l0.723-0.969h2.684z" fill="#444444"></path>
<path d="M20.026 24.623l3.954-5.265h-8.068l-6.289 8.361h8.044l1.612-2.136h-5.336l0.723-0.969h2.684l2.676 0.008zM16.27 22.487l0.723-0.969h2.684l-0.723 0.969h-2.684z" fill="#444444"></path>
<path d="M32.699 19.383h-8.044l-6.289 8.361h2.684l1.858-2.477 1.858 2.477h2.684l-2.334-3.105h3.645l3.938-5.257zM28.411 21.519l-0.723 0.969h-2.7l0.723-0.969h2.7z" fill="#444444"></path>
<path d="M14.658 19.383h-7.456l-6.289 8.369h4.693l4.979-2.136 4.677-6.209h-0.603v-0.024zM9.155 23.94l-3.668 1.286 2.803-3.708h2.684l-1.818 2.422z" fill="#444444"></path>
<path d="M3.351 29.904h0.286c0.238 0 0.445 0.064 0.445 0.341v0.024c0 0.262-0.199 0.341-0.445 0.341h-0.103v0.341c0 0-0.199 0-0.199-0.103v-0.945h0.016zM3.557 30.047v0.421h0.103c0.143 0 0.238-0.024 0.238-0.198 0-0.183-0.103-0.198-0.238-0.198h-0.103v-0.024z" fill="#444444"></path>
<path d="M5.852 30.468c0.183 0.103 0.238 0.326 0.326 0.461 0 0-0.064 0.024-0.079 0.024-0.064 0-0.119-0.024-0.183-0.103-0.079-0.143-0.143-0.302-0.326-0.365v0.461c0 0-0.199 0-0.199-0.103v-0.969h0.341c0.222 0 0.381 0.064 0.381 0.262v0.040c0 0.198-0.103 0.294-0.262 0.294zM5.59 30.047v0.302h0.159c0.119 0 0.183-0.064 0.183-0.159 0-0.103-0.064-0.143-0.183-0.143h-0.159z" fill="#444444"></path>
<path d="M8.314 30.61c0 0.222-0.143 0.341-0.445 0.341s-0.445-0.119-0.445-0.341v-0.381c0-0.222 0.143-0.341 0.445-0.341s0.445 0.119 0.445 0.341v0.381zM8.107 30.253c0-0.143-0.040-0.222-0.238-0.222s-0.238 0.079-0.238 0.222v0.341c0 0.143 0.040 0.222 0.238 0.222s0.238-0.079 0.238-0.222v-0.341z" fill="#444444"></path>
<path d="M9.806 30.936c-0.024 0-0.159 0-0.159-0.103v-0.945h0.421c0.238 0 0.445 0.079 0.445 0.365v0.326c0 0.286-0.222 0.365-0.445 0.365l-0.262-0.008zM9.846 30.047v0.746h0.222c0.143 0 0.262-0.064 0.262-0.222v-0.302c0-0.183-0.119-0.222-0.262-0.222h-0.222z" fill="#444444"></path>
<path d="M12.744 30.634c0 0.222-0.198 0.326-0.445 0.326s-0.445-0.103-0.445-0.326v-0.746c0 0 0.198 0 0.198 0.103v0.627c0 0.119 0.103 0.198 0.238 0.198s0.238-0.064 0.238-0.198v-0.723c0 0 0.198 0 0.198 0.103v0.635z" fill="#444444"></path>
<path d="M14.277 30.269v0.326c0 0.183 0.103 0.222 0.238 0.222 0.143 0 0.302-0.024 0.365-0.183 0.143 0.238-0.119 0.326-0.365 0.326-0.238 0-0.445-0.103-0.445-0.365v-0.365c0-0.262 0.222-0.365 0.445-0.365 0.238 0 0.5 0.079 0.365 0.326-0.040-0.143-0.222-0.183-0.365-0.183-0.135 0.040-0.238 0.079-0.238 0.262z" fill="#444444"></path>
<path d="M16.635 30.047v0.905c0 0-0.198 0-0.198-0.103v-0.81h-0.183c-0.119 0-0.143-0.103-0.143-0.159 0 0 0.064 0.024 0.159 0.024h0.5c0.103 0 0.159-0.024 0.159-0.024 0 0.079-0.024 0.159-0.143 0.159h-0.151z" fill="#444444"></path>
<path d="M18.231 29.888c0 0 0.198 0 0.198 0.103v0.969c0 0-0.198 0-0.198-0.103v-0.969z" fill="#444444"></path>
<path d="M20.645 30.61c0 0.222-0.143 0.341-0.445 0.341s-0.445-0.119-0.445-0.341v-0.381c0-0.222 0.143-0.341 0.445-0.341s0.445 0.119 0.445 0.341v0.381zM20.447 30.253c0-0.143-0.040-0.222-0.238-0.222s-0.238 0.079-0.238 0.222v0.341c0 0.143 0.040 0.222 0.238 0.222s0.238-0.079 0.238-0.222v-0.341z" fill="#444444"></path>
<path d="M22.686 30.65c0 0-0.024-0.079-0.024-0.159v-0.603c0 0 0.198 0 0.198 0.103v0.969c-0.222 0-0.262-0.103-0.262-0.103l-0.445-0.667c0 0 0.024 0.079 0.024 0.159v0.627c0 0-0.198 0-0.198-0.103v-0.969c0.119 0 0.222 0 0.262 0.079l0.445 0.667z" fill="#444444"></path>
<path d="M24.599 29.888c0.198 0 0.381 0.040 0.381 0.183 0 0.040-0.024 0.079-0.040 0.143 0-0.143-0.183-0.183-0.326-0.183-0.119 0-0.222 0.040-0.222 0.143 0 0.238 0.627 0 0.627 0.461 0 0.222-0.183 0.326-0.421 0.326-0.183 0-0.381-0.040-0.381-0.183 0-0.040 0.024-0.079 0.064-0.143 0 0.143 0.183 0.159 0.326 0.159s0.222-0.064 0.222-0.159c0-0.262-0.627-0.040-0.627-0.461-0.032-0.206 0.151-0.286 0.397-0.286z" fill="#444444"></path>
</svg>
