<?xml version="1.0" encoding="utf-8"?>
<!-- Generated by IcoMoon.io -->
<!DOCTYPE svg PUBLIC "-//W3C//DTD SVG 1.1//EN" "http://www.w3.org/Graphics/SVG/1.1/DTD/svg11.dtd">
<svg version="1.1" xmlns="http://www.w3.org/2000/svg" xmlns:xlink="http://www.w3.org/1999/xlink" width="50" height="50" viewBox="0 0 50 50">
<path d="M24.682 20.554l0.048 0.822-0.795-0.101c-2.893-0.386-5.421-1.694-7.567-3.891l-1.049-1.090-0.27 0.805c-0.572 1.795-0.207 3.69 0.986 4.964 0.636 0.704 0.493 0.805-0.604 0.386-0.381-0.134-0.715-0.235-0.747-0.184-0.111 0.117 0.27 1.644 0.572 2.247 0.413 0.839 1.256 1.66 2.178 2.147l0.779 0.386-0.922 0.017c-0.89 0-0.922 0.017-0.827 0.369 0.318 1.090 1.574 2.247 2.973 2.751l0.986 0.352-0.858 0.537c-1.272 0.771-2.766 1.208-4.26 1.241-0.715 0.017-1.303 0.084-1.303 0.134 0 0.168 1.939 1.107 3.068 1.476 3.386 1.090 7.408 0.621 10.428-1.241 2.146-1.325 4.292-3.958 5.293-6.507 0.54-1.358 1.081-3.841 1.081-5.031 0-0.771 0.048-0.872 0.938-1.795 0.525-0.537 1.017-1.124 1.113-1.291 0.159-0.319 0.143-0.319-0.668-0.034-1.351 0.503-1.542 0.436-0.874-0.319 0.493-0.537 1.081-1.509 1.081-1.795 0-0.050-0.238 0.034-0.509 0.184-0.286 0.168-0.922 0.419-1.399 0.57l-0.858 0.285-0.779-0.553c-0.429-0.302-1.033-0.637-1.351-0.738-0.811-0.235-2.051-0.201-2.782 0.067-1.987 0.755-3.243 2.7-3.1 4.83 0 0-0.143-2.13 0 0v0 0z" fill="#444444"></path>
</svg>
