<?xml version="1.0" encoding="utf-8"?>
<!-- Generated by IcoMoon.io -->
<!DOCTYPE svg PUBLIC "-//W3C//DTD SVG 1.1//EN" "http://www.w3.org/Graphics/SVG/1.1/DTD/svg11.dtd">
<svg version="1.1" xmlns="http://www.w3.org/2000/svg" xmlns:xlink="http://www.w3.org/1999/xlink" width="72" height="32" viewBox="0 0 72 32">
<path d="M27.913 10.371l-6.194-6.207-13.494 13.507 13.494 13.507 6.207-6.207-7.3-7.3 7.287-7.3zM13.314 10.371l-6.207-6.207-6.207 6.207 6.207 6.194 6.207-6.194zM0.912 24.97l6.207 6.207 6.207-6.207-6.207-6.207-6.207 6.207z" fill="#444444"></path>
<path d="M22.824 17.671l13.507 13.507 6.207-6.207-13.52-13.507-6.194 6.207zM58.23 11.463l-7.3 7.3-7.3-7.3-6.207 6.207 13.507 13.494 13.507-13.507-6.207-6.194z" fill="#444444"></path>
<path d="M58.23 9.266l7.274 7.274c3.2-3.753 3.020-9.394-0.527-12.928-3.727-3.727-9.78-3.727-13.507 0l-6.747 6.76 6.207 6.207 7.3-7.312zM65.529 18.763l-6.207 6.207 6.207 6.207 6.207-6.207-6.207-6.207z" fill="#444444"></path>
</svg>
