<svg style="display: none;"><symbol viewBox="0 0 50 50" id="shape-facebook"><title>facebook</title> <path d="M26.815 36v-11.001h3.254l0.431-3.791h-3.685l0.006-1.897c0-0.989 0.101-1.519 1.623-1.519h2.034v-3.792h-3.255c-3.909 0-5.285 1.839-5.285 4.932v2.276h-2.437v3.791h2.437v11.001h4.878z" fill="#444444"/> </symbol><symbol viewBox="0 0 50 50" id="shape-google"><title>google</title> <path d="M38.2 22.1v5.3h-2.2v-5.3h-5.2v-2.2h5.2v-5.2h2.2v5.2h4c0.3 0.7 0.5 1.4 0.8 2.2h-4.8z" fill="#444444"/> <path d="M31.3 14c0 0-8.2 0-11 0-4.9 0-9.6 3.7-9.6 8.1s3.4 8 8.4 8c0.3 0 0.7 0 1 0-0.3 0.6-0.6 1.3-0.6 2.1 0 1.2 0.7 2.2 1.5 3-0.6 0-1.2 0-1.9 0-6.1 0-10.8 3.9-10.8 7.9s5.1 6.5 11.3 6.5c7 0 10.8-3.9 10.8-7.9 0-3.2-0.9-5.1-3.8-7.1-1-0.7-2.9-2.4-2.9-3.4 0-1.2 0.3-1.8 2.1-3.1 1.8-1.4 3.1-3.4 3.1-5.7 0-2.8-1.2-5.5-3.5-6.3h3.5l2.4-2.1zM27.5 40.9c0.1 0.4 0.1 0.7 0.1 1.1 0 3.2-2.1 5.7-8 5.7-4.2 0-7.3-2.7-7.3-5.9 0-3.1 3.8-5.8 8-5.7 1 0 1.9 0.2 2.7 0.4 2.4 1.7 4 2.6 4.5 4.4v0zM20.8 28.9c-2.8-0.1-5.5-3.2-6-6.9s1.4-6.6 4.2-6.5c2.8 0.1 5.5 3.1 6 6.8 0.5 3.8-1.4 6.7-4.2 6.6z" fill="#444444"/> </symbol><symbol viewBox="0 0 38 32" id="shape-helping"><title>helping</title> <path d="M26.096 21.426c0.191-0.891 0.293-1.817 0.293-2.764 0-0.953-0.102-1.884-0.295-2.778l-2.979-0.201c-0.22-0.73-0.521-1.428-0.891-2.077l2.074-2.045c-1.014-1.567-2.354-2.906-3.921-3.918l-2.249 1.964c-0.66-0.354-1.363-0.636-2.099-0.84l0.021-2.914c-0.891-0.191-1.817-0.293-2.764-0.293-0.953 0-1.884 0.102-2.778 0.295l-0.201 2.979c-0.73 0.22-1.428 0.521-2.077 0.891l-2.045-2.077c-1.567 1.014-2.906 2.354-3.918 3.921l1.964 2.249c-0.354 0.66-0.636 1.363-0.84 2.099l-2.914-0.021c-0.191 0.891-0.293 1.817-0.293 2.764 0 0.953 0.102 1.884 0.295 2.778l2.979 0.201c0.22 0.73 0.521 1.428 0.891 2.077l-2.074 2.048c1.014 1.567 2.354 2.906 3.921 3.918l2.246-1.964c0.66 0.354 1.363 0.639 2.099 0.84l-0.021 2.912c0.891 0.191 1.817 0.293 2.764 0.293 0.953 0 1.884-0.102 2.778-0.295l0.201-2.979c0.73-0.22 1.428-0.521 2.080-0.891l2.045 2.074c1.567-1.014 2.906-2.354 3.918-3.921l-1.964-2.246c0.354-0.66 0.636-1.363 0.84-2.099l2.914 0.021zM13.287 22.666c-2.211 0-4.007-1.793-4.007-4.004s1.793-4.007 4.007-4.007c2.211 0 4.007 1.793 4.007 4.007 0 2.211-1.795 4.004-4.007 4.004z" fill="rgb(212, 58, 39)"/> <path d="M19.752 19.258c0-3.569-2.896-6.465-6.465-6.465s-6.465 2.896-6.465 6.465c0 3.569 2.896 6.465 6.465 6.465s6.465-2.896 6.465-6.465zM9.283 18.662c0-2.211 1.793-4.007 4.007-4.007 2.211 0 4.007 1.793 4.007 4.007 0 2.211-1.793 4.004-4.007 4.004s-4.007-1.793-4.007-4.004z" fill="rgb(150, 40, 32)"/> <path d="M13.287 12.197c-3.569 0-6.465 2.896-6.465 6.465s2.896 6.465 6.465 6.465c3.569 0 6.465-2.896 6.465-6.465s-2.896-6.465-6.465-6.465zM13.287 22.508c-2.123 0-3.846-1.723-3.846-3.846s1.723-3.846 3.846-3.846c2.123 0 3.846 1.723 3.846 3.846s-1.723 3.846-3.846 3.846z" fill="rgb(214, 87, 39)"/> <path d="M13.416 13.051c2.375 0 4.479 1.167 5.767 2.957-1.014-2.246-3.271-3.811-5.896-3.811-3.011 0-5.542 2.061-6.261 4.847 1.154-2.364 3.583-3.993 6.39-3.993z" fill="rgb(226, 103, 64)"/> <path d="M13.37 10.23c3.642 0 6.865 1.787 8.843 4.533-1.554-3.443-5.018-5.842-9.041-5.842-4.616 0-8.496 3.159-9.599 7.431 1.771-3.623 5.493-6.121 9.798-6.121z" fill="rgb(214, 87, 39)"/> <path d="M26.877 4.79c0.102-0.429 0.129-0.875 0.072-1.312l-1.114-0.18c-0.038-0.15-0.089-0.295-0.153-0.44l0.754-0.845c-0.113-0.185-0.244-0.362-0.395-0.531-0.15-0.166-0.311-0.317-0.483-0.451l-0.915 0.66c-0.134-0.081-0.274-0.148-0.419-0.201l-0.064-1.13c-0.429-0.102-0.875-0.129-1.312-0.072l-0.18 1.114c-0.15 0.038-0.295 0.089-0.44 0.153l-0.845-0.754c-0.185 0.113-0.362 0.244-0.531 0.395-0.166 0.15-0.317 0.311-0.451 0.48l0.66 0.915c-0.081 0.134-0.148 0.274-0.201 0.419l-1.13 0.064c-0.102 0.429-0.129 0.875-0.072 1.312l1.114 0.18c0.038 0.15 0.089 0.295 0.153 0.44l-0.754 0.845c0.113 0.185 0.247 0.362 0.395 0.531 0.15 0.166 0.311 0.317 0.48 0.451l0.915-0.66c0.134 0.080 0.274 0.148 0.419 0.201l0.064 1.13c0.429 0.102 0.875 0.126 1.312 0.072l0.18-1.114c0.15-0.038 0.295-0.089 0.44-0.153l0.845 0.754c0.185-0.113 0.362-0.244 0.531-0.394 0.166-0.15 0.317-0.311 0.451-0.48l-0.66-0.915c0.081-0.134 0.148-0.274 0.201-0.419l1.133-0.064zM24.301 5.045c-0.615 0.55-1.559 0.496-2.107-0.115-0.55-0.615-0.496-1.559 0.115-2.107 0.615-0.55 1.559-0.496 2.107 0.118 0.55 0.609 0.499 1.554-0.115 2.104z" fill="rgb(150, 40, 32)"/> <path d="M34.423 14.315l2.018 0.507c0.424-0.711 0.719-1.497 0.87-2.311l-1.854-0.929c0.019-0.303 0.011-0.609-0.027-0.915l1.787-1.068c-0.099-0.395-0.236-0.786-0.411-1.173-0.174-0.384-0.378-0.743-0.609-1.076l-1.967 0.655c-0.204-0.231-0.427-0.44-0.668-0.625l0.507-2.018c-0.711-0.424-1.495-0.719-2.311-0.87l-0.929 1.854c-0.303-0.019-0.609-0.011-0.915 0.027l-1.068-1.787c-0.395 0.099-0.786 0.236-1.173 0.411-0.384 0.174-0.743 0.378-1.076 0.609l0.655 1.967c-0.231 0.204-0.44 0.427-0.625 0.668l-2.018-0.507c-0.424 0.711-0.719 1.495-0.869 2.311l1.854 0.929c-0.019 0.303-0.011 0.609 0.027 0.915l-1.785 1.068c0.099 0.395 0.236 0.789 0.411 1.173s0.378 0.743 0.609 1.076l1.967-0.655c0.204 0.231 0.427 0.44 0.668 0.625l-0.507 2.018c0.711 0.424 1.495 0.719 2.311 0.869l0.929-1.854c0.303 0.019 0.609 0.011 0.915-0.030l1.068 1.785c0.395-0.099 0.786-0.236 1.173-0.411 0.384-0.174 0.743-0.378 1.076-0.609l-0.655-1.97c0.228-0.199 0.437-0.421 0.623-0.66zM31.683 13.832c-1.409 0.639-3.070 0.016-3.709-1.393s-0.016-3.070 1.393-3.709c1.409-0.639 3.070-0.016 3.709 1.393 0.639 1.406 0.016 3.067-1.393 3.709z" fill="rgb(11, 136, 202)"/> <path d="M30.355 7.976c-1.573 0-2.847 1.275-2.847 2.847 0 0.537 0.148 1.039 0.405 1.468-0.534-1.374 0.094-2.944 1.455-3.561 1.409-0.639 3.070-0.016 3.709 1.393 0.032 0.070 0.059 0.14 0.086 0.209-0.236-1.339-1.404-2.356-2.807-2.356z" fill="rgb(29, 163, 221)"/> <path d="M23.364 1.841c0.929 0 1.752 0.456 2.257 1.157-0.397-0.878-1.28-1.489-2.305-1.489-1.178 0-2.168 0.805-2.448 1.895 0.448-0.923 1.398-1.562 2.496-1.562z" fill="rgb(164, 44, 41)"/> </symbol><symbol viewBox="0 0 50 50" id="shape-instagram"><title>instagram</title> <path d="M35.951 34.51c-0.176 0.945-0.91 1.728-1.808 1.928-0.113 0.026-0.228 0.042-0.342 0.063h-17.602c-0.047-0.008-0.094-0.017-0.141-0.023-0.968-0.13-1.781-0.902-1.997-1.899-0.025-0.116-0.041-0.234-0.061-0.351v-18.453c0.007-0.043 0.016-0.086 0.021-0.129 0.139-1.032 0.86-1.853 1.835-2.085 0.105-0.025 0.212-0.040 0.319-0.060h17.651c0.041 0.008 0.081 0.017 0.123 0.023 0.999 0.143 1.812 0.943 2.004 1.974 0.019 0.1 0.032 0.202 0.047 0.302v18.403c-0.016 0.102-0.030 0.206-0.049 0.308zM16.38 33.099c0 0.49 0.406 0.911 0.874 0.911 5.163 0 10.325 0 15.488 0 0.473 0 0.876-0.42 0.876-0.914 0-3.4 0-6.799 0-10.199v-0.071h-2.1c0.297 0.991 0.388 1.999 0.271 3.026s-0.433 1.984-0.949 2.867c-0.516 0.884-1.185 1.616-2.004 2.199-2.123 1.512-4.919 1.645-7.172 0.323-1.139-0.668-2.033-1.599-2.657-2.798-0.93-1.79-1.079-3.669-0.533-5.618-0.697 0.001-1.391 0.001-2.094 0.001v0.062c0 3.404-0 6.807 0 10.211zM24.898 29.658c2.491 0.056 4.506-2.025 4.558-4.555 0.054-2.61-1.96-4.765-4.456-4.764-2.44-0.002-4.424 2.051-4.458 4.59-0.035 2.608 1.962 4.675 4.355 4.729zM33.618 18.482c0-0.726 0-1.452 0-2.179 0-0.521-0.394-0.935-0.892-0.936-0.693-0-1.385-0.001-2.078 0-0.496 0.001-0.892 0.416-0.892 0.937-0 0.72-0.002 1.44 0.002 2.16 0.001 0.107 0.020 0.219 0.053 0.321 0.124 0.383 0.46 0.618 0.871 0.62 0.334 0.001 0.668-0 1.003-0 0.362-0.004 0.725 0.003 1.087-0.006 0.466-0.012 0.845-0.43 0.845-0.917z" fill="#444444"/> </symbol><symbol viewBox="0 0 50 50" id="shape-linkedin"><title>linkedin</title> <path d="M14 20.118v14.54h4.71v-14.54h-4.71zM16.665 13c-1.611 0-2.665 1.086-2.665 2.512 0 1.396 1.022 2.513 2.604 2.513h0.030c1.642 0 2.665-1.117 2.665-2.513-0.031-1.426-1.023-2.512-2.634-2.512zM30.577 20.118c-2.501 0-3.62 1.411-4.246 2.401v-2.059h-4.711c0.062 1.364 0 14.54 0 14.54h4.711v-8.12c0-0.435 0.031-0.868 0.155-1.179 0.34-0.868 1.115-1.767 2.417-1.767 1.705 0 2.387 1.333 2.387 3.287v7.779h4.71l0-8.337c0-4.466-2.324-6.545-5.423-6.545z" fill="#444444"/> </symbol><symbol viewBox="0 0 40 32" id="shape-noborder"><title>noborder</title> <path d="M31.007 7.551h-6.186l-1.612 2.16h8.060l1.612-2.16z" fill="#444444"/> <path d="M37.177 1.35h-7.663l-3.946 5.257h8.052l3.938-5.257h-0.381zM29.84 4.447l0.723-0.969h2.684l-0.723 0.969h-2.684z" fill="#444444"/> <path d="M26.148 1.35l-1.326 1.771-1.35-1.771h-2.684l-6.289 8.361h2.684l4.939-6.591 1.35 1.795-3.613 4.796h2.684l6.289-8.361z" fill="#444444"/> <path d="M21.209 10.354h-7.218l-6.289 8.361h8.044l6.289-8.361h-0.826zM17.747 12.514l-0.723 0.969h-2.684l0.723-0.969h2.684zM11.998 16.588l0.723-0.969h2.684l-0.723 0.969h-2.684z" fill="#444444"/> <path d="M30.023 10.354h-7.337l-6.289 8.361h8.044l6.289-8.361h-0.707zM23.408 16.588h-2.684l3.065-4.073h2.684l-3.065 4.073z" fill="#444444"/> <path d="M39.472 10.354h-8.036l-6.289 8.361h2.684l1.858-2.477 1.858 2.477h2.684l-2.334-3.105h3.645l3.931-5.257zM35.176 12.514l-0.723 0.969h-2.684l0.723-0.969h2.684z" fill="#444444"/> <path d="M20.026 24.623l3.954-5.265h-8.068l-6.289 8.361h8.044l1.612-2.136h-5.336l0.723-0.969h2.684l2.676 0.008zM16.27 22.487l0.723-0.969h2.684l-0.723 0.969h-2.684z" fill="#444444"/> <path d="M32.699 19.383h-8.044l-6.289 8.361h2.684l1.858-2.477 1.858 2.477h2.684l-2.334-3.105h3.645l3.938-5.257zM28.411 21.519l-0.723 0.969h-2.7l0.723-0.969h2.7z" fill="#444444"/> <path d="M14.658 19.383h-7.456l-6.289 8.369h4.693l4.979-2.136 4.677-6.209h-0.603v-0.024zM9.155 23.94l-3.668 1.286 2.803-3.708h2.684l-1.818 2.422z" fill="#444444"/> <path d="M3.351 29.904h0.286c0.238 0 0.445 0.064 0.445 0.341v0.024c0 0.262-0.199 0.341-0.445 0.341h-0.103v0.341c0 0-0.199 0-0.199-0.103v-0.945h0.016zM3.557 30.047v0.421h0.103c0.143 0 0.238-0.024 0.238-0.198 0-0.183-0.103-0.198-0.238-0.198h-0.103v-0.024z" fill="#444444"/> <path d="M5.852 30.468c0.183 0.103 0.238 0.326 0.326 0.461 0 0-0.064 0.024-0.079 0.024-0.064 0-0.119-0.024-0.183-0.103-0.079-0.143-0.143-0.302-0.326-0.365v0.461c0 0-0.199 0-0.199-0.103v-0.969h0.341c0.222 0 0.381 0.064 0.381 0.262v0.040c0 0.198-0.103 0.294-0.262 0.294zM5.59 30.047v0.302h0.159c0.119 0 0.183-0.064 0.183-0.159 0-0.103-0.064-0.143-0.183-0.143h-0.159z" fill="#444444"/> <path d="M8.314 30.61c0 0.222-0.143 0.341-0.445 0.341s-0.445-0.119-0.445-0.341v-0.381c0-0.222 0.143-0.341 0.445-0.341s0.445 0.119 0.445 0.341v0.381zM8.107 30.253c0-0.143-0.040-0.222-0.238-0.222s-0.238 0.079-0.238 0.222v0.341c0 0.143 0.040 0.222 0.238 0.222s0.238-0.079 0.238-0.222v-0.341z" fill="#444444"/> <path d="M9.806 30.936c-0.024 0-0.159 0-0.159-0.103v-0.945h0.421c0.238 0 0.445 0.079 0.445 0.365v0.326c0 0.286-0.222 0.365-0.445 0.365l-0.262-0.008zM9.846 30.047v0.746h0.222c0.143 0 0.262-0.064 0.262-0.222v-0.302c0-0.183-0.119-0.222-0.262-0.222h-0.222z" fill="#444444"/> <path d="M12.744 30.634c0 0.222-0.198 0.326-0.445 0.326s-0.445-0.103-0.445-0.326v-0.746c0 0 0.198 0 0.198 0.103v0.627c0 0.119 0.103 0.198 0.238 0.198s0.238-0.064 0.238-0.198v-0.723c0 0 0.198 0 0.198 0.103v0.635z" fill="#444444"/> <path d="M14.277 30.269v0.326c0 0.183 0.103 0.222 0.238 0.222 0.143 0 0.302-0.024 0.365-0.183 0.143 0.238-0.119 0.326-0.365 0.326-0.238 0-0.445-0.103-0.445-0.365v-0.365c0-0.262 0.222-0.365 0.445-0.365 0.238 0 0.5 0.079 0.365 0.326-0.040-0.143-0.222-0.183-0.365-0.183-0.135 0.040-0.238 0.079-0.238 0.262z" fill="#444444"/> <path d="M16.635 30.047v0.905c0 0-0.198 0-0.198-0.103v-0.81h-0.183c-0.119 0-0.143-0.103-0.143-0.159 0 0 0.064 0.024 0.159 0.024h0.5c0.103 0 0.159-0.024 0.159-0.024 0 0.079-0.024 0.159-0.143 0.159h-0.151z" fill="#444444"/> <path d="M18.231 29.888c0 0 0.198 0 0.198 0.103v0.969c0 0-0.198 0-0.198-0.103v-0.969z" fill="#444444"/> <path d="M20.645 30.61c0 0.222-0.143 0.341-0.445 0.341s-0.445-0.119-0.445-0.341v-0.381c0-0.222 0.143-0.341 0.445-0.341s0.445 0.119 0.445 0.341v0.381zM20.447 30.253c0-0.143-0.040-0.222-0.238-0.222s-0.238 0.079-0.238 0.222v0.341c0 0.143 0.040 0.222 0.238 0.222s0.238-0.079 0.238-0.222v-0.341z" fill="#444444"/> <path d="M22.686 30.65c0 0-0.024-0.079-0.024-0.159v-0.603c0 0 0.198 0 0.198 0.103v0.969c-0.222 0-0.262-0.103-0.262-0.103l-0.445-0.667c0 0 0.024 0.079 0.024 0.159v0.627c0 0-0.198 0-0.198-0.103v-0.969c0.119 0 0.222 0 0.262 0.079l0.445 0.667z" fill="#444444"/> <path d="M24.599 29.888c0.198 0 0.381 0.040 0.381 0.183 0 0.040-0.024 0.079-0.040 0.143 0-0.143-0.183-0.183-0.326-0.183-0.119 0-0.222 0.040-0.222 0.143 0 0.238 0.627 0 0.627 0.461 0 0.222-0.183 0.326-0.421 0.326-0.183 0-0.381-0.040-0.381-0.183 0-0.040 0.024-0.079 0.064-0.143 0 0.143 0.183 0.159 0.326 0.159s0.222-0.064 0.222-0.159c0-0.262-0.627-0.040-0.627-0.461-0.032-0.206 0.151-0.286 0.397-0.286z" fill="#444444"/> </symbol><symbol viewBox="0 0 50 50" id="shape-twitter"><title>twitter</title> <path d="M24.682 20.554l0.048 0.822-0.795-0.101c-2.893-0.386-5.421-1.694-7.567-3.891l-1.049-1.090-0.27 0.805c-0.572 1.795-0.207 3.69 0.986 4.964 0.636 0.704 0.493 0.805-0.604 0.386-0.381-0.134-0.715-0.235-0.747-0.184-0.111 0.117 0.27 1.644 0.572 2.247 0.413 0.839 1.256 1.66 2.178 2.147l0.779 0.386-0.922 0.017c-0.89 0-0.922 0.017-0.827 0.369 0.318 1.090 1.574 2.247 2.973 2.751l0.986 0.352-0.858 0.537c-1.272 0.771-2.766 1.208-4.26 1.241-0.715 0.017-1.303 0.084-1.303 0.134 0 0.168 1.939 1.107 3.068 1.476 3.386 1.090 7.408 0.621 10.428-1.241 2.146-1.325 4.292-3.958 5.293-6.507 0.54-1.358 1.081-3.841 1.081-5.031 0-0.771 0.048-0.872 0.938-1.795 0.525-0.537 1.017-1.124 1.113-1.291 0.159-0.319 0.143-0.319-0.668-0.034-1.351 0.503-1.542 0.436-0.874-0.319 0.493-0.537 1.081-1.509 1.081-1.795 0-0.050-0.238 0.034-0.509 0.184-0.286 0.168-0.922 0.419-1.399 0.57l-0.858 0.285-0.779-0.553c-0.429-0.302-1.033-0.637-1.351-0.738-0.811-0.235-2.051-0.201-2.782 0.067-1.987 0.755-3.243 2.7-3.1 4.83 0 0-0.143-2.13 0 0v0 0z" fill="#444444"/> </symbol><symbol viewBox="0 0 72 32" id="shape-xwp"><title>xwp</title> <path d="M27.913 10.371l-6.194-6.207-13.494 13.507 13.494 13.507 6.207-6.207-7.3-7.3 7.287-7.3zM13.314 10.371l-6.207-6.207-6.207 6.207 6.207 6.194 6.207-6.194zM0.912 24.97l6.207 6.207 6.207-6.207-6.207-6.207-6.207 6.207z" fill="#444444"/> <path d="M22.824 17.671l13.507 13.507 6.207-6.207-13.52-13.507-6.194 6.207zM58.23 11.463l-7.3 7.3-7.3-7.3-6.207 6.207 13.507 13.494 13.507-13.507-6.207-6.194z" fill="#444444"/> <path d="M58.23 9.266l7.274 7.274c3.2-3.753 3.020-9.394-0.527-12.928-3.727-3.727-9.78-3.727-13.507 0l-6.747 6.76 6.207 6.207 7.3-7.312zM65.529 18.763l-6.207 6.207 6.207 6.207 6.207-6.207-6.207-6.207z" fill="#444444"/> </symbol></svg>